  0
SECTION
  2
HEADER
  9
$ACADVER
  1
AC1009
  9
$INSBASE
 10
0
 20
0
 30
0
  9
$EXTMIN
 10
0
 20
0
  9
$EXTMAX
 10
841
 20
594
  9
$LIMMIN
 10
0
 20
0
  9
$LIMMAX
 10
841
 20
594
  9
$LTSCALE
 40
1
  0
ENDSEC
  0
SECTION
  2
TABLES
  0
TABLE
  2
LTYPE
 70
     9
  0
LTYPE
  2
CONTINUOUS
 70
    64
  3
実線
 72
    65
 73
     0
 40
0.0
  0
LTYPE
  2
DASHED1
 70
    64
  3
--  --  --  --  --  --  --  --  
 72
    65
 73
     2
 40
2.5
 49
1.25
 49
-1.25
  0
LTYPE
  2
DASHED2
 70
    64
  3
----    ----    ----    ----    
 72
    65
 73
     2
 40
5.0
 49
2.5
 49
-2.5
  0
LTYPE
  2
DASHED3
 70
    64
  3
------  ------  ------  ------  
 72
    65
 73
     2
 40
5.0
 49
3.75
 49
-1.25
  0
LTYPE
  2
CENTER1
 70
    64
  3
----- - ----- - ----- - ----- - 
 72
    65
 73
     4
 40
10.0
 49
6.25
 49
-1.25
 49
1.25
 49
-1.25
  0
LTYPE
  2
CENTER2
 70
    64
  3
----------  --  ----------  --  
 72
    65
 73
     4
 40
20.0
 49
12.5
 49
-2.5
 49
2.5
 49
-2.5
  0
LTYPE
  2
PHANTOM1
 70
    64
  3
--- - - --- - - --- - - --- - - 
 72
    65
 73
     6
 40
10.0
 49
3.25
 49
-1.25
 49
1.25
 49
-1.25
 49
1.25
 49
-1.25
  0
LTYPE
  2
PHANTOM2
 70
    64
  3
--------  -  -  --------  -  -  
 72
    65
 73
     6
 40
20.0
 49
10.0
 49
-2.5
 49
1.25
 49
-2.5
 49
1.25
 49
-2.5
  0
LTYPE
  2
DOT
 70
    64
  3
-   -   -   -   -   -   -   -   
 72
    65
 73
     2
 40
2.5
 49
0.625
 49
-1.875
  0
LTYPE
  2
DUMMY
 70
    64
  3
ダミー
 72
    65
 73
     0
 40
0.0
  0
LTYPE
  2
RAND1
 70
    64
  3
ランダム線1
 72
    65
 73
     4
 40
10.0
 49
1.0
 49
-2.0
 49
3.0
 49
-4.0
  0
LTYPE
  2
RAND2
 70
    64
  3
ランダム線2
 72
    65
 73
     4
 40
14.0
 49
2.0
 49
-3.0
 49
4.0
 49
-5.0
  0
LTYPE
  2
RAND3
 70
    64
  3
ランダム線3
 72
    65
 73
     4
 40
18.0
 49
3.0
 49
-4.0
 49
5.0
 49
-6.0
  0
LTYPE
  2
RAND4
 70
    64
  3
ランダム線4
 72
    65
 73
     4
 40
22.0
 49
4.0
 49
-5.0
 49
6.0
 49
-7.0
  0
LTYPE
  2
RAND5
 70
    64
  3
ランダム線5
 72
    65
 73
     4
 40
26.0
 49
5.0
 49
-6.0
 49
7.0
 49
-8.0
  0
LTYPE
  2
LONG1
 70
    64
  3
----------  --  ----------  --  
 72
    65
 73
     4
 40
40.0
 49
32.5
 49
-2.5
 49
2.5
 49
-2.5
  0
LTYPE
  2
LONG2
 70
    64
  3
--------  -  -  --------  -  -  
 72
    65
 73
     6
 40
40.0
 49
30.0
 49
-2.5
 49
1.25
 49
-2.5
 49
1.25
 49
-2.5
  0
LTYPE
  2
LONG3
 70
    64
  3
+++++++++++++++..+++++++++++++++
 72
    65
 73
     2
 40
40.0
 49
37.5
 49
-2.5
  0
LTYPE
  2
LONG4
 70
    64
  3
+++++++++++++++..+++++++++++++++
 72
    65
 73
     2
 40
80.0
 49
75.0
 49
-5.0
  0
LTYPE
  2
LONG5
 70
    64
  3
----------  --  ----------  --  
 72
    65
 73
     4
 40
60.0
 49
37.5
 49
-7.5
 49
7.5
 49
-7.5
  0
LTYPE
  2
dashed
 70
   64
  3
-------   -------------   ------
 72
   65
 73
    2
 40
7.5
 49
6
 49
-1.5
  0
LTYPE
  2
dashed_spaced
 70
   64
  3
----        --------        ----
 72
   65
 73
    2
 40
12
 49
6
 49
-6
  0
LTYPE
  2
long_dashed_dotted
 70
   64
  3
------------- --- --------------
 72
   65
 73
    4
 40
15.25
 49
12
 49
-1.5
 49
0.25
 49
-1.5
  0
LTYPE
  2
long_dashed_double-dotted
 70
   64
  3
----------- --- --- ------------
 72
   65
 73
    6
 40
17
 49
12
 49
-1.5
 49
0.25
 49
-1.5
 49
0.25
 49
-1.5
  0
LTYPE
  2
long_dashed_triplicate-dotted
 70
   64
  3
--------- --- --- --- ----------
 72
   65
 73
    8
 40
18.75
 49
12
 49
-1.5
 49
0.25
 49
-1.5
 49
0.25
 49
-1.5
 49
0.25
 49
-1.5
  0
LTYPE
  2
dotted
 70
   64
  3
   -       -       -       -    
 72
   65
 73
    2
 40
1.75
 49
0.25
 49
-1.5
  0
LTYPE
  2
chain
 70
   64
  3
-------------- -- --------------
 72
   65
 73
    4
 40
18.5
 49
12
 49
-1.5
 49
3.5
 49
-1.5
  0
LTYPE
  2
chain_double_dash
 70
   64
  3
------------ -- -- -------------
 72
   65
 73
    6
 40
23.5
 49
12
 49
-1.5
 49
3.5
 49
-1.5
 49
3.5
 49
-1.5
  0
LTYPE
  2
dashed_dotted
 70
   64
  3
-----------     -     ----------
 72
   65
 73
    4
 40
9.25
 49
6
 49
-1.5
 49
0.25
 49
-1.5
  0
LTYPE
  2
double-dashed_dotted
 70
   64
  3
------   -----------   -   -----
 72
   65
 73
    6
 40
16.75
 49
6
 49
-1.5
 49
6
 49
-1.5
 49
0.25
 49
-1.5
  0
LTYPE
  2
dashed_double-dotted
 70
   64
  3
---------    -    -    ---------
 72
   65
 73
    6
 40
11
 49
6
 49
-1.5
 49
0.25
 49
-1.5
 49
0.25
 49
-1.5
  0
LTYPE
  2
double-dashed_double-dotted
 70
   64
  3
-----   ---------   -   -   ----
 72
   65
 73
    8
 40
18.5
 49
6
 49
-1.5
 49
6
 49
-1.5
 49
0.25
 49
-1.5
 49
0.25
 49
-1.5
  0
LTYPE
  2
dashed_triplicate-dotted
 70
   64
  3
-------    -    -    -    ------
 72
   65
 73
    8
 40
12.75
 49
6
 49
-1.5
 49
0.25
 49
-1.5
 49
0.25
 49
-1.5
 49
0.25
 49
-1.5
  0
LTYPE
  2
double-dashed_triplicate-dotted
 70
   64
  3
-----  ---------  -  -  -  -----
 72
   65
 73
   10
 40
20.25
 49
6
 49
-1.5
 49
6
 49
-1.5
 49
0.25
 49
-1.5
 49
0.25
 49
-1.5
 49
0.25
 49
-1.5
  0
LTYPE
  2
undefined
 70
   64
  3
--------------------------------
 72
   65
 73
    0
 40
0
  0
ENDTAB
  0
TABLE
  2
STYLE
  5
3
100
AcDbSymbolTable
 70
     1
  0
STYLE
  5
10
100
AcDbSymbolTableRecord
100
AcDbTextStyleTableRecord
  2
STANDARD
 70
     0
 40
0.0
 41
1.0
 50
0.0
 71
     0
 42
0.2
  3
txt
  4
bigfont.shx
  0
STYLE
  5
26
100
AcDbSymbolTableRecord
100
AcDbTextStyleTableRecord
  2
TATEGAKI
 70
    68
 40
0.0
 41
1.0
 50
0.0
 71
     0
 42
1.0
  3
txt
  4
bigfont.shx
  0
ENDTAB
  0
TABLE
  2
LAYER
 70
    2
  0
LAYER
  2
_0-0_
 70
   64
 62
    7
  6
CONTINUOUS
  0
LAYER
  2
ADD_LINE
 70
   64
 62
    7
  6
CONTINUOUS
  0
ENDTAB
  0
ENDSEC
  0
SECTION
  2
BLOCKS
  0
ENDSEC
  0
SECTION
  2
ENTITIES
  0
CIRCLE
  8
_0-0_
  6
CONTINUOUS
 62
    7
 10
43.022580645161327
 20
398.55483870967743
 40
30
  0
CIRCLE
  8
_0-0_
  6
CONTINUOUS
 62
    7
 10
43.022580645161327
 20
398.55483870967743
 40
25.5
  0
CIRCLE
  8
_0-0_
  6
CONTINUOUS
 62
    7
 10
43.022580645161327
 20
398.55483870967743
 40
2.5
  0
POINT
  8
_0-0_
 62
    7
 10
43.022580645161327
 20
398.55483870967743
  0
POINT
  8
_0-0_
 62
    7
 10
119.64458064516134
 20
398.55483870967743
  0
POINT
  8
_0-0_
 62
    7
 10
81.333580645161305
 20
464.9118387096774
  0
POINT
  8
_0-0_
 62
    7
 10
4.711580645161348
 20
464.9118387096774
  0
POINT
  8
_0-0_
 62
    7
 10
-33.599419354838687
 20
398.55483870967743
  0
POINT
  8
_0-0_
 62
    7
 10
4.711580645161348
 20
332.1978387096774
  0
POINT
  8
_0-0_
 62
    7
 10
81.333580645161305
 20
332.1978387096774
  0
LINE
  8
_0-0_
  6
CONTINUOUS
 62
    7
 10
81.241580645161321
 20
401.21583870967743
 11
62.750580645161335
 21
393.59283870967738
  0
LINE
  8
_0-0_
  6
CONTINUOUS
 62
    7
 10
79.852580645161311
 20
398.45683870967741
 11
60.121580645161316
 21
395.18383870967739
  0
LINE
  8
_0-0_
  6
CONTINUOUS
 62
    7
 10
81.241580645161321
 20
395.89383870967742
 11
62.750580645161335
 21
403.51683870967742
  0
LINE
  8
_0-0_
  6
CONTINUOUS
 62
    7
 10
79.852580645161311
 20
398.65283870967744
 11
60.121580645161316
 21
401.92583870967741
  0
LINE
  8
_0-0_
  6
CONTINUOUS
 62
    7
 10
79.690580645161333
 20
409.65383870967742
 11
63.360580645161349
 21
398.10683870967739
  0
LINE
  8
_0-0_
  6
CONTINUOUS
 62
    7
 10
78.950580645161324
 20
406.65483870967739
 11
60.443580645161319
 21
399.0728387096774
  0
LINE
  8
_0-0_
  6
CONTINUOUS
 62
    7
 10
80.875580645161335
 20
404.46483870967739
 11
61.152580645161322
 21
407.7818387096774
  0
LINE
  8
_0-0_
  6
CONTINUOUS
 62
    7
 10
78.906580645161341
 20
406.84583870967742
 11
58.942580645161343
 21
405.64583870967738
  0
LINE
  8
_0-0_
  6
CONTINUOUS
 62
    7
 10
76.301580645161323
 20
417.53483870967739
 11
62.950580645161324
 21
402.64383870967742
  0
LINE
  8
_0-0_
  6
CONTINUOUS
 62
    7
 10
76.247580645161349
 20
414.44683870967742
 11
59.890580645161322
 21
402.93683870967743
  0
LINE
  8
_0-0_
  6
CONTINUOUS
 62
    7
 10
78.610580645161349
 20
412.73983870967743
 11
58.644580645161341
 21
411.5848387096774
  0
LINE
  8
_0-0_
  6
CONTINUOUS
 62
    7
 10
76.162580645161313
 20
414.62283870967741
 11
56.96558064516131
 21
409.01083870967739
  0
LINE
  8
_0-0_
  6
CONTINUOUS
 62
    7
 10
71.24358064516133
 20
424.46383870967742
 11
61.540580645161299
 21
406.97583870967742
  0
LINE
  8
_0-0_
  6
CONTINUOUS
 62
    7
 10
71.878580645161321
 20
421.44083870967739
 11
58.492580645161354
 21
406.58083870967744
  0
LINE
  8
_0-0_
  6
CONTINUOUS
 62
    7
 10
74.562580645161347
 20
420.30283870967742
 11
55.353580645161344
 21
414.73483870967743
  0
LINE
  8
_0-0_
  6
CONTINUOUS
 62
    7
 10
71.755580645161331
 20
421.59383870967741
 11
54.289580645161323
 21
411.85183870967739
  0
LINE
  8
_0-0_
  6
CONTINUOUS
 62
    7
 10
64.770580645161317
 20
430.09483870967745
 11
59.202580645161333
 21
410.88583870967739
  0
LINE
  8
_0-0_
  6
CONTINUOUS
 62
    7
 10
66.061580645161314
 20
427.28783870967743
 11
56.319580645161352
 21
409.82183870967742
  0
LINE
  8
_0-0_
  6
CONTINUOUS
 62
    7
 10
68.931580645161318
 20
426.77583870967737
 11
51.443580645161319
 21
417.0728387096774
  0
LINE
  8
_0-0_
  6
CONTINUOUS
 62
    7
 10
65.908580645161351
 20
427.41083870967742
 11
51.048580645161337
 21
414.0248387096774
  0
LINE
  8
_0-0_
  6
CONTINUOUS
 62
    7
 10
57.207580645161329
 20
434.14283870967745
 11
56.052580645161299
 21
414.17683870967744
  0
LINE
  8
_0-0_
  6
CONTINUOUS
 62
    7
 10
59.09058064516131
 20
431.69483870967741
 11
53.478580645161344
 21
412.49783870967741
  0
LINE
  8
_0-0_
  6
CONTINUOUS
 62
    7
 10
62.002580645161345
 20
431.83383870967742
 11
47.111580645161325
 21
418.48283870967742
  0
LINE
  8
_0-0_
  6
CONTINUOUS
 62
    7
 10
58.914580645161323
 20
431.77983870967739
 11
47.404580645161332
 21
415.42283870967742
  0
LINE
  8
_0-0_
  6
CONTINUOUS
 62
    7
 10
48.932580645161352
 20
436.40783870967743
 11
52.249580645161302
 21
416.68483870967742
  0
LINE
  8
_0-0_
  6
CONTINUOUS
 62
    7
 10
51.313580645161323
 20
434.43883870967738
 11
50.113580645161335
 21
414.47483870967744
  0
LINE
  8
_0-0_
  6
CONTINUOUS
 62
    7
 10
54.121580645161316
 20
435.22283870967738
 11
42.574580645161348
 21
418.89283870967745
  0
LINE
  8
_0-0_
  6
CONTINUOUS
 62
    7
 10
51.122580645161349
 20
434.48283870967742
 11
43.540580645161299
 21
415.97583870967742
  0
LINE
  8
_0-0_
  6
CONTINUOUS
 62
    7
 10
40.361580645161325
 20
436.77383870967742
 11
47.984580645161316
 21
418.28283870967743
  0
LINE
  8
_0-0_
  6
CONTINUOUS
 62
    7
 10
43.12058064516134
 20
435.38483870967741
 11
46.393580645161308
 21
415.65383870967742
  0
LINE
  8
_0-0_
  6
CONTINUOUS
 62
    7
 10
45.683580645161328
 20
436.77383870967742
 11
38.060580645161338
 21
418.28283870967743
  0
LINE
  8
_0-0_
  6
CONTINUOUS
 62
    7
 10
42.924580645161313
 20
435.38483870967741
 11
39.651580645161346
 21
415.65383870967742
  0
LINE
  8
_0-0_
  6
CONTINUOUS
 62
    7
 10
31.923580645161337
 20
435.22283870967738
 11
43.470580645161306
 21
418.89283870967745
  0
LINE
  8
_0-0_
  6
CONTINUOUS
 62
    7
 10
34.922580645161304
 20
434.48283870967742
 11
42.504580645161354
 21
415.97583870967742
  0
LINE
  8
_0-0_
  6
CONTINUOUS
 62
    7
 10
37.112580645161302
 20
436.40783870967743
 11
33.795580645161351
 21
416.68483870967742
  0
LINE
  8
_0-0_
  6
CONTINUOUS
 62
    7
 10
34.73158064516133
 20
434.43883870967738
 11
35.931580645161318
 21
414.47483870967744
  0
LINE
  8
_0-0_
  6
CONTINUOUS
 62
    7
 10
24.042580645161308
 20
431.83383870967742
 11
38.933580645161328
 21
418.48283870967742
  0
LINE
  8
_0-0_
  6
CONTINUOUS
 62
    7
 10
27.130580645161331
 20
431.77983870967739
 11
38.640580645161322
 21
415.42283870967742
  0
LINE
  8
_0-0_
  6
CONTINUOUS
 62
    7
 10
28.837580645161324
 20
434.14283870967745
 11
29.992580645161354
 21
414.17683870967744
  0
LINE
  8
_0-0_
  6
CONTINUOUS
 62
    7
 10
26.954580645161343
 20
431.69483870967741
 11
32.566580645161309
 21
412.49783870967741
  0
LINE
  8
_0-0_
  6
CONTINUOUS
 62
    7
 10
17.113580645161335
 20
426.77583870967737
 11
34.601580645161334
 21
417.0728387096774
  0
LINE
  8
_0-0_
  6
CONTINUOUS
 62
    7
 10
20.136580645161303
 20
427.41083870967742
 11
34.996580645161316
 21
414.0248387096774
  0
LINE
  8
_0-0_
  6
CONTINUOUS
 62
    7
 10
21.274580645161336
 20
430.09483870967745
 11
26.84258064516132
 21
410.88583870967739
  0
LINE
  8
_0-0_
  6
CONTINUOUS
 62
    7
 10
19.983580645161339
 20
427.28783870967743
 11
29.725580645161301
 21
409.82183870967742
  0
LINE
  8
_0-0_
  6
CONTINUOUS
 62
    7
 10
11.482580645161306
 20
420.30283870967742
 11
30.691580645161309
 21
414.73483870967743
  0
LINE
  8
_0-0_
  6
CONTINUOUS
 62
    7
 10
14.289580645161323
 20
421.59383870967741
 11
31.755580645161331
 21
411.85183870967739
  0
LINE
  8
_0-0_
  6
CONTINUOUS
 62
    7
 10
14.801580645161323
 20
424.46383870967742
 11
24.504580645161354
 21
406.97583870967742
  0
LINE
  8
_0-0_
  6
CONTINUOUS
 62
    7
 10
14.166580645161332
 20
421.44083870967739
 11
27.552580645161299
 21
406.58083870967744
  0
LINE
  8
_0-0_
  6
CONTINUOUS
 62
    7
 10
7.4345806451613043
 20
412.73983870967743
 11
27.400580645161313
 21
411.5848387096774
  0
LINE
  8
_0-0_
  6
CONTINUOUS
 62
    7
 10
9.8825806451613403
 20
414.62283870967741
 11
29.079580645161343
 21
409.01083870967739
  0
LINE
  8
_0-0_
  6
CONTINUOUS
 62
    7
 10
9.7435806451613303
 20
417.53483870967739
 11
23.094580645161329
 21
402.64383870967742
  0
LINE
  8
_0-0_
  6
CONTINUOUS
 62
    7
 10
9.7975806451613039
 20
414.44683870967742
 11
26.154580645161332
 21
402.93683870967743
  0
LINE
  8
_0-0_
  6
CONTINUOUS
 62
    7
 10
5.169580645161318
 20
404.46483870967739
 11
24.892580645161331
 21
407.7818387096774
  0
LINE
  8
_0-0_
  6
CONTINUOUS
 62
    7
 10
7.1385806451613121
 20
406.84583870967742
 11
27.102580645161311
 21
405.64583870967738
  0
LINE
  8
_0-0_
  6
CONTINUOUS
 62
    7
 10
6.3545806451613203
 20
409.65383870967742
 11
22.684580645161304
 21
398.10683870967739
  0
LINE
  8
_0-0_
  6
CONTINUOUS
 62
    7
 10
7.0945806451613294
 20
406.65483870967739
 11
25.601580645161334
 21
399.0728387096774
  0
LINE
  8
_0-0_
  6
CONTINUOUS
 62
    7
 10
4.8035806451613325
 20
395.89383870967742
 11
23.294580645161318
 21
403.51683870967742
  0
LINE
  8
_0-0_
  6
CONTINUOUS
 62
    7
 10
6.1925806451613425
 20
398.65283870967744
 11
25.923580645161337
 21
401.92583870967741
  0
LINE
  8
_0-0_
  6
CONTINUOUS
 62
    7
 10
4.8035806451613325
 20
401.21583870967743
 11
23.294580645161318
 21
393.59283870967738
  0
LINE
  8
_0-0_
  6
CONTINUOUS
 62
    7
 10
6.1925806451613425
 20
398.45683870967741
 11
25.923580645161337
 21
395.18383870967739
  0
LINE
  8
_0-0_
  6
CONTINUOUS
 62
    7
 10
6.3545806451613203
 20
387.45583870967744
 11
22.684580645161304
 21
399.00283870967741
  0
LINE
  8
_0-0_
  6
CONTINUOUS
 62
    7
 10
7.0945806451613294
 20
390.4548387096774
 11
25.601580645161334
 21
398.0368387096774
  0
LINE
  8
_0-0_
  6
CONTINUOUS
 62
    7
 10
5.169580645161318
 20
392.6448387096774
 11
24.892580645161331
 21
389.32783870967739
  0
LINE
  8
_0-0_
  6
CONTINUOUS
 62
    7
 10
7.1385806451613121
 20
390.26383870967743
 11
27.102580645161311
 21
391.46383870967742
  0
LINE
  8
_0-0_
  6
CONTINUOUS
 62
    7
 10
9.7435806451613303
 20
379.57483870967741
 11
23.094580645161329
 21
394.46583870967743
  0
LINE
  8
_0-0_
  6
CONTINUOUS
 62
    7
 10
9.7975806451613039
 20
382.66283870967743
 11
26.154580645161332
 21
394.17283870967742
  0
LINE
  8
_0-0_
  6
CONTINUOUS
 62
    7
 10
7.4345806451613043
 20
384.36983870967742
 11
27.400580645161313
 21
385.5248387096774
  0
LINE
  8
_0-0_
  6
CONTINUOUS
 62
    7
 10
9.8825806451613403
 20
382.48683870967739
 11
29.079580645161343
 21
388.09883870967741
  0
LINE
  8
_0-0_
  6
CONTINUOUS
 62
    7
 10
14.801580645161323
 20
372.64583870967738
 11
24.504580645161354
 21
390.13383870967743
  0
LINE
  8
_0-0_
  6
CONTINUOUS
 62
    7
 10
14.166580645161332
 20
375.6688387096774
 11
27.552580645161299
 21
390.52883870967742
  0
LINE
  8
_0-0_
  6
CONTINUOUS
 62
    7
 10
11.482580645161306
 20
376.80683870967744
 11
30.691580645161309
 21
382.37483870967742
  0
LINE
  8
_0-0_
  6
CONTINUOUS
 62
    7
 10
14.289580645161323
 20
375.51583870967738
 11
31.755580645161331
 21
385.2578387096774
  0
LINE
  8
_0-0_
  6
CONTINUOUS
 62
    7
 10
21.274580645161336
 20
367.01483870967741
 11
26.84258064516132
 21
386.22383870967741
  0
LINE
  8
_0-0_
  6
CONTINUOUS
 62
    7
 10
19.983580645161339
 20
369.82183870967742
 11
29.725580645161301
 21
387.28783870967743
  0
LINE
  8
_0-0_
  6
CONTINUOUS
 62
    7
 10
17.113580645161335
 20
370.33383870967742
 11
34.601580645161334
 21
380.0368387096774
  0
LINE
  8
_0-0_
  6
CONTINUOUS
 62
    7
 10
20.136580645161303
 20
369.69883870967737
 11
34.996580645161316
 21
383.0848387096774
  0
LINE
  8
_0-0_
  6
CONTINUOUS
 62
    7
 10
28.837580645161324
 20
362.9668387096774
 11
29.992580645161354
 21
382.93283870967741
  0
LINE
  8
_0-0_
  6
CONTINUOUS
 62
    7
 10
26.954580645161343
 20
365.41483870967738
 11
32.566580645161309
 21
384.61183870967739
  0
LINE
  8
_0-0_
  6
CONTINUOUS
 62
    7
 10
24.042580645161308
 20
365.27583870967737
 11
38.933580645161328
 21
378.62683870967743
  0
LINE
  8
_0-0_
  6
CONTINUOUS
 62
    7
 10
27.130580645161331
 20
365.3298387096774
 11
38.640580645161322
 21
381.68683870967743
  0
LINE
  8
_0-0_
  6
CONTINUOUS
 62
    7
 10
37.112580645161302
 20
360.70183870967742
 11
33.795580645161351
 21
380.42483870967743
  0
LINE
  8
_0-0_
  6
CONTINUOUS
 62
    7
 10
34.73158064516133
 20
362.67083870967741
 11
35.931580645161318
 21
382.63483870967741
  0
LINE
  8
_0-0_
  6
CONTINUOUS
 62
    7
 10
31.923580645161337
 20
361.88683870967742
 11
43.470580645161306
 21
378.2168387096774
  0
LINE
  8
_0-0_
  6
CONTINUOUS
 62
    7
 10
34.922580645161304
 20
362.62683870967743
 11
42.504580645161354
 21
381.13383870967743
  0
LINE
  8
_0-0_
  6
CONTINUOUS
 62
    7
 10
45.683580645161328
 20
360.33583870967743
 11
38.060580645161338
 21
378.82683870967742
  0
LINE
  8
_0-0_
  6
CONTINUOUS
 62
    7
 10
42.924580645161313
 20
361.72483870967744
 11
39.651580645161346
 21
381.45583870967744
  0
LINE
  8
_0-0_
  6
CONTINUOUS
 62
    7
 10
40.361580645161325
 20
360.33583870967743
 11
47.984580645161316
 21
378.82683870967742
  0
LINE
  8
_0-0_
  6
CONTINUOUS
 62
    7
 10
43.12058064516134
 20
361.72483870967744
 11
46.393580645161308
 21
381.45583870967744
  0
LINE
  8
_0-0_
  6
CONTINUOUS
 62
    7
 10
54.121580645161316
 20
361.88683870967742
 11
42.574580645161348
 21
378.2168387096774
  0
LINE
  8
_0-0_
  6
CONTINUOUS
 62
    7
 10
51.122580645161349
 20
362.62683870967743
 11
43.540580645161299
 21
381.13383870967743
  0
LINE
  8
_0-0_
  6
CONTINUOUS
 62
    7
 10
48.932580645161352
 20
360.70183870967742
 11
52.249580645161302
 21
380.42483870967743
  0
LINE
  8
_0-0_
  6
CONTINUOUS
 62
    7
 10
51.313580645161323
 20
362.67083870967741
 11
50.113580645161335
 21
382.63483870967741
  0
LINE
  8
_0-0_
  6
CONTINUOUS
 62
    7
 10
62.002580645161345
 20
365.27583870967737
 11
47.111580645161325
 21
378.62683870967743
  0
LINE
  8
_0-0_
  6
CONTINUOUS
 62
    7
 10
58.914580645161323
 20
365.3298387096774
 11
47.404580645161332
 21
381.68683870967743
  0
LINE
  8
_0-0_
  6
CONTINUOUS
 62
    7
 10
57.207580645161329
 20
362.9668387096774
 11
56.052580645161299
 21
382.93283870967741
  0
LINE
  8
_0-0_
  6
CONTINUOUS
 62
    7
 10
59.09058064516131
 20
365.41483870967738
 11
53.478580645161344
 21
384.61183870967739
  0
LINE
  8
_0-0_
  6
CONTINUOUS
 62
    7
 10
68.931580645161318
 20
370.33383870967742
 11
51.443580645161319
 21
380.0368387096774
  0
LINE
  8
_0-0_
  6
CONTINUOUS
 62
    7
 10
65.908580645161351
 20
369.69883870967737
 11
51.048580645161337
 21
383.0848387096774
  0
LINE
  8
_0-0_
  6
CONTINUOUS
 62
    7
 10
64.770580645161317
 20
367.01483870967741
 11
59.202580645161333
 21
386.22383870967741
  0
LINE
  8
_0-0_
  6
CONTINUOUS
 62
    7
 10
66.061580645161314
 20
369.82183870967742
 11
56.319580645161352
 21
387.28783870967743
  0
LINE
  8
_0-0_
  6
CONTINUOUS
 62
    7
 10
74.562580645161347
 20
376.80683870967744
 11
55.353580645161344
 21
382.37483870967742
  0
LINE
  8
_0-0_
  6
CONTINUOUS
 62
    7
 10
71.755580645161331
 20
375.51583870967738
 11
54.289580645161323
 21
385.2578387096774
  0
LINE
  8
_0-0_
  6
CONTINUOUS
 62
    7
 10
71.24358064516133
 20
372.64583870967738
 11
61.540580645161299
 21
390.13383870967743
  0
LINE
  8
_0-0_
  6
CONTINUOUS
 62
    7
 10
71.878580645161321
 20
375.6688387096774
 11
58.492580645161354
 21
390.52883870967742
  0
LINE
  8
_0-0_
  6
CONTINUOUS
 62
    7
 10
78.610580645161349
 20
384.36983870967742
 11
58.644580645161341
 21
385.5248387096774
  0
LINE
  8
_0-0_
  6
CONTINUOUS
 62
    7
 10
76.162580645161313
 20
382.48683870967739
 11
56.96558064516131
 21
388.09883870967741
  0
LINE
  8
_0-0_
  6
CONTINUOUS
 62
    7
 10
76.301580645161323
 20
379.57483870967741
 11
62.950580645161324
 21
394.46583870967743
  0
LINE
  8
_0-0_
  6
CONTINUOUS
 62
    7
 10
76.247580645161349
 20
382.66283870967743
 11
59.890580645161322
 21
394.17283870967742
  0
LINE
  8
_0-0_
  6
CONTINUOUS
 62
    7
 10
80.875580645161335
 20
392.6448387096774
 11
61.152580645161322
 21
389.32783870967739
  0
LINE
  8
_0-0_
  6
CONTINUOUS
 62
    7
 10
78.906580645161341
 20
390.26383870967743
 11
58.942580645161343
 21
391.46383870967742
  0
LINE
  8
_0-0_
  6
CONTINUOUS
 62
    7
 10
79.690580645161333
 20
387.45583870967744
 11
63.360580645161349
 21
399.00283870967741
  0
LINE
  8
_0-0_
  6
CONTINUOUS
 62
    7
 10
78.950580645161324
 20
390.4548387096774
 11
60.443580645161319
 21
398.0368387096774
  0
ENDSEC
  0
EOF
