  0
SECTION
  2
HEADER
  9
$ACADVER
  1
AC1009
  9
$INSBASE
 10
0
 20
0
 30
0
  9
$EXTMIN
 10
0
 20
0
  9
$EXTMAX
 10
841
 20
594
  9
$LIMMIN
 10
0
 20
0
  9
$LIMMAX
 10
841
 20
594
  9
$LTSCALE
 40
1
  0
ENDSEC
  0
SECTION
  2
TABLES
  0
TABLE
  2
LTYPE
 70
     9
  0
LTYPE
  2
CONTINUOUS
 70
    64
  3
実線
 72
    65
 73
     0
 40
0.0
  0
LTYPE
  2
DASHED1
 70
    64
  3
--  --  --  --  --  --  --  --  
 72
    65
 73
     2
 40
2.5
 49
1.25
 49
-1.25
  0
LTYPE
  2
DASHED2
 70
    64
  3
----    ----    ----    ----    
 72
    65
 73
     2
 40
5.0
 49
2.5
 49
-2.5
  0
LTYPE
  2
DASHED3
 70
    64
  3
------  ------  ------  ------  
 72
    65
 73
     2
 40
5.0
 49
3.75
 49
-1.25
  0
LTYPE
  2
CENTER1
 70
    64
  3
----- - ----- - ----- - ----- - 
 72
    65
 73
     4
 40
10.0
 49
6.25
 49
-1.25
 49
1.25
 49
-1.25
  0
LTYPE
  2
CENTER2
 70
    64
  3
----------  --  ----------  --  
 72
    65
 73
     4
 40
20.0
 49
12.5
 49
-2.5
 49
2.5
 49
-2.5
  0
LTYPE
  2
PHANTOM1
 70
    64
  3
--- - - --- - - --- - - --- - - 
 72
    65
 73
     6
 40
10.0
 49
3.25
 49
-1.25
 49
1.25
 49
-1.25
 49
1.25
 49
-1.25
  0
LTYPE
  2
PHANTOM2
 70
    64
  3
--------  -  -  --------  -  -  
 72
    65
 73
     6
 40
20.0
 49
10.0
 49
-2.5
 49
1.25
 49
-2.5
 49
1.25
 49
-2.5
  0
LTYPE
  2
DOT
 70
    64
  3
-   -   -   -   -   -   -   -   
 72
    65
 73
     2
 40
2.5
 49
0.625
 49
-1.875
  0
LTYPE
  2
DUMMY
 70
    64
  3
ダミー
 72
    65
 73
     0
 40
0.0
  0
LTYPE
  2
RAND1
 70
    64
  3
ランダム線1
 72
    65
 73
     4
 40
10.0
 49
1.0
 49
-2.0
 49
3.0
 49
-4.0
  0
LTYPE
  2
RAND2
 70
    64
  3
ランダム線2
 72
    65
 73
     4
 40
14.0
 49
2.0
 49
-3.0
 49
4.0
 49
-5.0
  0
LTYPE
  2
RAND3
 70
    64
  3
ランダム線3
 72
    65
 73
     4
 40
18.0
 49
3.0
 49
-4.0
 49
5.0
 49
-6.0
  0
LTYPE
  2
RAND4
 70
    64
  3
ランダム線4
 72
    65
 73
     4
 40
22.0
 49
4.0
 49
-5.0
 49
6.0
 49
-7.0
  0
LTYPE
  2
RAND5
 70
    64
  3
ランダム線5
 72
    65
 73
     4
 40
26.0
 49
5.0
 49
-6.0
 49
7.0
 49
-8.0
  0
LTYPE
  2
LONG1
 70
    64
  3
----------  --  ----------  --  
 72
    65
 73
     4
 40
40.0
 49
32.5
 49
-2.5
 49
2.5
 49
-2.5
  0
LTYPE
  2
LONG2
 70
    64
  3
--------  -  -  --------  -  -  
 72
    65
 73
     6
 40
40.0
 49
30.0
 49
-2.5
 49
1.25
 49
-2.5
 49
1.25
 49
-2.5
  0
LTYPE
  2
LONG3
 70
    64
  3
+++++++++++++++..+++++++++++++++
 72
    65
 73
     2
 40
40.0
 49
37.5
 49
-2.5
  0
LTYPE
  2
LONG4
 70
    64
  3
+++++++++++++++..+++++++++++++++
 72
    65
 73
     2
 40
80.0
 49
75.0
 49
-5.0
  0
LTYPE
  2
LONG5
 70
    64
  3
----------  --  ----------  --  
 72
    65
 73
     4
 40
60.0
 49
37.5
 49
-7.5
 49
7.5
 49
-7.5
  0
LTYPE
  2
dashed
 70
   64
  3
-------   -------------   ------
 72
   65
 73
    2
 40
7.5
 49
6
 49
-1.5
  0
LTYPE
  2
dashed_spaced
 70
   64
  3
----        --------        ----
 72
   65
 73
    2
 40
12
 49
6
 49
-6
  0
LTYPE
  2
long_dashed_dotted
 70
   64
  3
------------- --- --------------
 72
   65
 73
    4
 40
15.25
 49
12
 49
-1.5
 49
0.25
 49
-1.5
  0
LTYPE
  2
long_dashed_double-dotted
 70
   64
  3
----------- --- --- ------------
 72
   65
 73
    6
 40
17
 49
12
 49
-1.5
 49
0.25
 49
-1.5
 49
0.25
 49
-1.5
  0
LTYPE
  2
long_dashed_triplicate-dotted
 70
   64
  3
--------- --- --- --- ----------
 72
   65
 73
    8
 40
18.75
 49
12
 49
-1.5
 49
0.25
 49
-1.5
 49
0.25
 49
-1.5
 49
0.25
 49
-1.5
  0
LTYPE
  2
dotted
 70
   64
  3
   -       -       -       -    
 72
   65
 73
    2
 40
1.75
 49
0.25
 49
-1.5
  0
LTYPE
  2
chain
 70
   64
  3
-------------- -- --------------
 72
   65
 73
    4
 40
18.5
 49
12
 49
-1.5
 49
3.5
 49
-1.5
  0
LTYPE
  2
chain_double_dash
 70
   64
  3
------------ -- -- -------------
 72
   65
 73
    6
 40
23.5
 49
12
 49
-1.5
 49
3.5
 49
-1.5
 49
3.5
 49
-1.5
  0
LTYPE
  2
dashed_dotted
 70
   64
  3
-----------     -     ----------
 72
   65
 73
    4
 40
9.25
 49
6
 49
-1.5
 49
0.25
 49
-1.5
  0
LTYPE
  2
double-dashed_dotted
 70
   64
  3
------   -----------   -   -----
 72
   65
 73
    6
 40
16.75
 49
6
 49
-1.5
 49
6
 49
-1.5
 49
0.25
 49
-1.5
  0
LTYPE
  2
dashed_double-dotted
 70
   64
  3
---------    -    -    ---------
 72
   65
 73
    6
 40
11
 49
6
 49
-1.5
 49
0.25
 49
-1.5
 49
0.25
 49
-1.5
  0
LTYPE
  2
double-dashed_double-dotted
 70
   64
  3
-----   ---------   -   -   ----
 72
   65
 73
    8
 40
18.5
 49
6
 49
-1.5
 49
6
 49
-1.5
 49
0.25
 49
-1.5
 49
0.25
 49
-1.5
  0
LTYPE
  2
dashed_triplicate-dotted
 70
   64
  3
-------    -    -    -    ------
 72
   65
 73
    8
 40
12.75
 49
6
 49
-1.5
 49
0.25
 49
-1.5
 49
0.25
 49
-1.5
 49
0.25
 49
-1.5
  0
LTYPE
  2
double-dashed_triplicate-dotted
 70
   64
  3
-----  ---------  -  -  -  -----
 72
   65
 73
   10
 40
20.25
 49
6
 49
-1.5
 49
6
 49
-1.5
 49
0.25
 49
-1.5
 49
0.25
 49
-1.5
 49
0.25
 49
-1.5
  0
LTYPE
  2
undefined
 70
   64
  3
--------------------------------
 72
   65
 73
    0
 40
0
  0
ENDTAB
  0
TABLE
  2
STYLE
  5
3
100
AcDbSymbolTable
 70
     1
  0
STYLE
  5
10
100
AcDbSymbolTableRecord
100
AcDbTextStyleTableRecord
  2
STANDARD
 70
     0
 40
0.0
 41
1.0
 50
0.0
 71
     0
 42
0.2
  3
txt
  4
bigfont.shx
  0
STYLE
  5
26
100
AcDbSymbolTableRecord
100
AcDbTextStyleTableRecord
  2
TATEGAKI
 70
    68
 40
0.0
 41
1.0
 50
0.0
 71
     0
 42
1.0
  3
txt
  4
bigfont.shx
  0
ENDTAB
  0
TABLE
  2
LAYER
 70
    2
  0
LAYER
  2
_0-0_
 70
   64
 62
    7
  6
CONTINUOUS
  0
LAYER
  2
ADD_LINE
 70
   64
 62
    7
  6
CONTINUOUS
  0
ENDTAB
  0
ENDSEC
  0
SECTION
  2
BLOCKS
  0
ENDSEC
  0
SECTION
  2
ENTITIES
  0
CIRCLE
  8
_0-0_
  6
CONTINUOUS
 62
    7
 10
69.848387096774218
 20
443.58387096774192
 40
8
  0
CIRCLE
  8
_0-0_
  6
CONTINUOUS
 62
    7
 10
69.848387096774218
 20
443.58387096774192
 40
3.5
  0
CIRCLE
  8
_0-0_
  6
CONTINUOUS
 62
    7
 10
69.848387096774218
 20
443.58387096774192
 40
2.5
  0
POINT
  8
_0-0_
 62
    7
 10
69.848387096774218
 20
443.58387096774192
  0
POINT
  8
_0-0_
 62
    7
 10
102.28838709677422
 20
443.58387096774192
  0
POINT
  8
_0-0_
 62
    7
 10
86.068387096774245
 20
471.67787096774191
  0
POINT
  8
_0-0_
 62
    7
 10
53.62838709677419
 20
471.67787096774191
  0
POINT
  8
_0-0_
 62
    7
 10
37.40838709677422
 20
443.58387096774192
  0
POINT
  8
_0-0_
 62
    7
 10
53.62838709677419
 20
415.48987096774192
  0
POINT
  8
_0-0_
 62
    7
 10
86.068387096774245
 20
415.48987096774192
  0
LINE
  8
_0-0_
  6
CONTINUOUS
 62
    7
 10
85.703387096774236
 20
447.00387096774193
 11
67.774387096774205
 21
438.14087096774188
  0
LINE
  8
_0-0_
  6
CONTINUOUS
 62
    7
 10
84.025387096774239
 20
437.27487096774189
 11
66.631387096774233
 21
447.14487096774189
  0
LINE
  8
_0-0_
  6
CONTINUOUS
 62
    7
 10
85.703387096774236
 20
440.1638709677419
 11
67.774387096774205
 21
449.02687096774196
  0
LINE
  8
_0-0_
  6
CONTINUOUS
 62
    7
 10
84.025387096774239
 20
449.89287096774194
 11
66.631387096774233
 21
440.02287096774194
  0
LINE
  8
_0-0_
  6
CONTINUOUS
 62
    7
 10
74.814387096774226
 20
459.02487096774189
 11
73.525387096774239
 21
439.06687096774192
  0
LINE
  8
_0-0_
  6
CONTINUOUS
 62
    7
 10
82.400387096774239
 20
452.70687096774191
 11
65.155387096774234
 21
442.57787096774189
  0
LINE
  8
_0-0_
  6
CONTINUOUS
 62
    7
 10
80.738387096774204
 20
455.60487096774193
 11
64.097387096774241
 21
444.5098709677419
  0
LINE
  8
_0-0_
  6
CONTINUOUS
 62
    7
 10
71.473387096774218
 20
459.01587096774188
 11
71.324387096774217
 21
439.01687096774191
  0
LINE
  8
_0-0_
  6
CONTINUOUS
 62
    7
 10
58.958387096774231
 20
455.60487096774193
 11
75.599387096774194
 21
444.5098709677419
  0
LINE
  8
_0-0_
  6
CONTINUOUS
 62
    7
 10
68.223387096774218
 20
459.01587096774188
 11
68.372387096774219
 21
439.01687096774191
  0
LINE
  8
_0-0_
  6
CONTINUOUS
 62
    7
 10
64.88238709677421
 20
459.02487096774189
 11
66.171387096774197
 21
439.06687096774192
  0
LINE
  8
_0-0_
  6
CONTINUOUS
 62
    7
 10
57.296387096774197
 20
452.70687096774191
 11
74.541387096774201
 21
442.57787096774189
  0
LINE
  8
_0-0_
  6
CONTINUOUS
 62
    7
 10
53.9933870967742
 20
440.1638709677419
 11
71.92238709677423
 21
449.02687096774196
  0
LINE
  8
_0-0_
  6
CONTINUOUS
 62
    7
 10
55.671387096774197
 20
449.89287096774194
 11
73.065387096774202
 21
440.02287096774194
  0
LINE
  8
_0-0_
  6
CONTINUOUS
 62
    7
 10
53.9933870967742
 20
447.00387096774193
 11
71.92238709677423
 21
438.14087096774188
  0
LINE
  8
_0-0_
  6
CONTINUOUS
 62
    7
 10
55.671387096774197
 20
437.27487096774189
 11
73.065387096774202
 21
447.14487096774189
  0
LINE
  8
_0-0_
  6
CONTINUOUS
 62
    7
 10
64.88238709677421
 20
428.14287096774194
 11
66.171387096774197
 21
448.10087096774191
  0
LINE
  8
_0-0_
  6
CONTINUOUS
 62
    7
 10
57.296387096774197
 20
434.46087096774193
 11
74.541387096774201
 21
444.58987096774194
  0
LINE
  8
_0-0_
  6
CONTINUOUS
 62
    7
 10
58.958387096774231
 20
431.5628709677419
 11
75.599387096774194
 21
442.65787096774193
  0
LINE
  8
_0-0_
  6
CONTINUOUS
 62
    7
 10
68.223387096774218
 20
428.15187096774196
 11
68.372387096774219
 21
448.15087096774192
  0
LINE
  8
_0-0_
  6
CONTINUOUS
 62
    7
 10
80.738387096774204
 20
431.5628709677419
 11
64.097387096774241
 21
442.65787096774193
  0
LINE
  8
_0-0_
  6
CONTINUOUS
 62
    7
 10
71.473387096774218
 20
428.15187096774196
 11
71.324387096774217
 21
448.15087096774192
  0
LINE
  8
_0-0_
  6
CONTINUOUS
 62
    7
 10
74.814387096774226
 20
428.14287096774194
 11
73.525387096774239
 21
448.10087096774191
  0
LINE
  8
_0-0_
  6
CONTINUOUS
 62
    7
 10
82.400387096774239
 20
434.46087096774193
 11
65.155387096774234
 21
444.58987096774194
  0
ENDSEC
  0
EOF
